#N canvas 1514 218 748 442 10;
#X obj 169 126 inlet;
#X obj 241 174 pipe 50;
#X obj 241 208 switch~;
#X msg 169 174 \$1 10;
#X obj 89 226 *~;
#X obj 89 263 outlet~;
#X obj 89 99 osc~;
#X obj 89 56 inlet~;
#X obj 169 209 line~;
#X connect 0 0 3 0;
#X connect 0 0 1 0;
#X connect 1 0 2 0;
#X connect 3 0 8 0;
#X connect 4 0 5 0;
#X connect 6 0 4 0;
#X connect 7 0 6 0;
#X connect 8 0 4 1;
