#N canvas 586 261 958 555 10;
#X obj 318 88 inlet;
#X obj 183 226 *~;
#X obj 183 266 outlet~;
#X msg 318 172 \$1 10;
#X obj 387 174 pipe 50;
#X obj 387 210 switch~;
#X obj 182 89 inlet~;
#X obj 181 136 phasor~;
#X obj 182 178 expr~ $v1 > 0.5;
#X obj 318 209 line~;
#X connect 0 0 3 0;
#X connect 0 0 4 0;
#X connect 1 0 2 0;
#X connect 3 0 9 0;
#X connect 4 0 5 0;
#X connect 6 0 7 0;
#X connect 7 0 8 0;
#X connect 8 0 1 0;
#X connect 9 0 1 1;
