#N canvas 514 281 1766 928 10;
#X obj 87 108 mtof;
#X obj 179 153 keyup;
#X obj 133 304 pack 0 50;
#X obj 133 335 line~;
#X msg 133 266 1;
#X obj 133 236 bng 15 250 50 0 empty empty empty 17 7 0 10 -262144
-1 -1;
#X msg 179 266 0;
#X obj 179 236 bng 15 250 50 0 empty empty empty 17 7 0 10 -262144
-1 -1;
#X obj 87 137 s cf;
#X obj 133 66 key;
#X floatatom 219 288 5 0 0 0 - - -;
#X obj 133 91 t float bang;
#X connect 0 0 8 0;
#X connect 1 0 7 0;
#X connect 2 0 3 0;
#X connect 4 0 2 0;
#X connect 5 0 4 0;
#X connect 6 0 2 0;
#X connect 7 0 6 0;
#X connect 9 0 11 0;
#X connect 10 0 2 1;
#X connect 11 0 5 0;
#X connect 11 0 0 0;
