#N canvas 2552 39 1920 1037 10;
#X obj 209 351 *~;
#X obj 209 408 dac~;
#X obj 236 245 tgl 15 0 empty empty empty 17 7 0 10 -262144 -1 -1 1
1;
#X obj 279 336 hsl 128 15 0 1 0 0 empty empty empty -2 -8 0 10 -4034
-1 -1 4900 1;
#X obj 209 207 +~;
#X obj 606 334 *~;
#X floatatom 675 318 5 0 0 0 - - -;
#X floatatom 607 162 5 1 400 0 - - -;
#X obj 605 383 s~ lfo;
#X obj 224 156 r~ lfo;
#X text 611 102 MODULATOR;
#X text 651 162 RATE;
#X text 717 318 DEPTH;
#X text 212 102 CARRIER;
#X obj 816 167 hradio 15 1 0 3 \$0-lfo-wave-s \$0-lfo-wave-r lfo_shape
0 -8 0 10 -4034 -1 -1 0;
#N canvas 3345 283 1018 736 lfo-waveform 0;
#X obj 324 193 r \$0-lfo-wave-s;
#X obj 195 191 inlet;
#X obj 196 396 outlet~;
#X obj 259 327 saw~;
#X obj 324 230 == 0;
#X obj 371 229 == 1;
#X obj 418 228 == 2;
#X obj 318 326 square~;
#X obj 195 328 sine~;
#X connect 0 0 4 0;
#X connect 0 0 5 0;
#X connect 0 0 6 0;
#X connect 1 0 3 0;
#X connect 1 0 7 0;
#X connect 1 0 8 0;
#X connect 3 0 2 0;
#X connect 4 0 8 1;
#X connect 5 0 3 1;
#X connect 6 0 7 1;
#X connect 7 0 2 0;
#X connect 8 0 2 0;
#X restore 607 222 pd lfo-waveform;
#X obj 209 269 sine~;
#X floatatom 156 192 5 0 0 0 - - -;
#X connect 0 0 1 0;
#X connect 0 0 1 1;
#X connect 2 0 16 1;
#X connect 3 0 0 1;
#X connect 4 0 16 0;
#X connect 5 0 8 0;
#X connect 6 0 5 1;
#X connect 7 0 15 0;
#X connect 9 0 4 1;
#X connect 15 0 5 0;
#X connect 16 0 0 0;
#X connect 17 0 4 0;
